<svg id="Layer_1" data-name="Layer 1" xmlns="http://www.w3.org/2000/svg" width="38.81mm" height="12.99mm" viewBox="0 0 110 36.82">
  <title>logo-curves</title>
  <g>
    <path d="M22.79,28.69a37.25,37.25,0,0,0,3.92-3.87c-.43,1.45-.6,2.69-.25,3.31.63,1.1,1.63,2.56,2.24,2.6s1,.39,3.27-1.84,4.76-5.13,5.79-6.3a45.9,45.9,0,0,0-1.43,5c-.26,1.92-.19,3.58,2.13,3.8,2.5.24,5.61-2.86,5.61-2.86l1.79-2s0-.89-.51-.41-2.67,2.72-3.59,2.56c-.4-.07-.94.12.31-4.07a35.67,35.67,0,0,1,4.26-8.5s1-1.71-.19-1.95a5.75,5.75,0,0,1-2.08-.83c-.71-.37-1.61-.65-2.13-.26S33.61,27.52,32,25c0,0-1-.54,2.93-8.61,1.64-3.4-.68-3.89-.78-3.9-.84,0-3-.07-7,3.53,0,0-.15.77.2.67.77-.23,2.52-1.64,2.71-1s-.73,2.71-2,5.43c-.27.58-.53,1.19-.76,1.78C15.2,33,10.2,31.34,10.2,31.34s-10.57-.44.69-16.07C20.4,2.06,27.09,5,27.09,5c2.07,1.24-1.47,5.25,0,6.13s2.44-2.43,2.44-2.43.75-2.59.21-3.83a5.81,5.81,0,0,0-3.61-3.56C23.87.53,23.19-.42,20.23.2,16.91.9,4.66,7.85.45,22.08c-1.7,5.77,2,7.91,2,7.91s1.13.79,2.34,1.84c4.12,3.58,9.9,4,18-3.14" style="fill: #441953"/>
    <path d="M61.13,31.3c1.14,0,1.42-.89,2.29-.46,1.31.66,2,.39,2.33,0,1.27-1.11,7.62-6.79,9.81-11.46,2.43-5.19,2.07-9.68-.66-8.27a6.16,6.16,0,0,0-2.48,2.66,1.57,1.57,0,0,0,.67,2.08c.94,5.15-4.91,11-6.68,12.58,1.23-7,1.11-9.27,1.08-10.59-.07-2.69-1.56-2.16-3.54-1.5a26.06,26.06,0,0,0-4.36,2.29s-.27.84.63.5,3.08-2.32,2.06,3.75c-1,5.79-2.28,8.39-1.14,8.42" style="fill: #441953"/>
    <path d="M88.22,12.13A3.57,3.57,0,0,0,84.31,12a19.09,19.09,0,0,0-7,8.31c-2.21,4.78-1.19,7.49.44,8.25a31.64,31.64,0,0,1,2.81,1.5,7.82,7.82,0,0,0,8.89-1.29c5.08-4.72,2.26-6.26,2.33-6a17.36,17.36,0,0,1-1.29,1.72c-4.27,5-7.17,4.82-8.12,4.41-3.83-1.65-.28-6.6-.28-6.6l.07-.12A4,4,0,0,0,83,23.45c.71.56,1.5,3,6.33-.74,2.14-1.65,5.92-5.37,3.26-7.71a6.91,6.91,0,0,0-1.34-.88s-1.44-.85-3.07-2m-1.3,8.51c-.77.8-2.79,2.12-3.36,1.53a1.69,1.69,0,0,1-.31-1.85c1.7-2.39,4.86-6.38,6.32-5.32,0,0,2,.87-2.64,5.64" style="fill: #441953"/>
    <path d="M108.16,21.25c-.77-1.13-2.89-1.66-4.76-1.54s-1.78-.24-1.78-.24c-.07-.71,2.56-2.31,3.94-3.07s1.42.08,1.3.65-1.18,1.82,0,.89a3.59,3.59,0,0,0,1-3.51c-.25-.57-1.22-1.05-1.91-1.78a2.7,2.7,0,0,0-2.52-1.05c-1.55.16-6.25,3.78-7.44,6a3.08,3.08,0,0,0,.25,3.11c1,1.33,3,1,4.63,1.13a3.14,3.14,0,0,1,2.4,1.33s1.63,1.78-3,6.27-6.06,3.19-6.06,3.19c-1-1.86,3.13-7.16,3.95-8.16S98,24,98,24a19,19,0,0,0-7,9.1c-.37,1.13.73,1.66,1,1.9s1.18,1.3,1.18,1.3.16.77,2.68.52,9.35-4.77,11.75-8.33,1.38-6.06.61-7.2" style="fill: #441953"/>
    <path d="M53.84,23.74l0,0c4.33-9.11,8.57-10.5,11-11a8.15,8.15,0,0,1,4.15.07c3.6.72.52-2.45.52-2.45a5.47,5.47,0,0,0-5.1-.47C62,10.93,58,15.11,56,17.56a7.84,7.84,0,0,0,.18-.91c.3-2.27-.66-3.17-.66-3.17s-.49-.67-2.27-.19a10.55,10.55,0,0,0-3.75,1.89c-.57.62,0,.68,0,.68,2.64-1.11,1.47,2.32,1.47,2.32-2.61,5.54-3.75,8-3.75,8s-1.07,2.23,0,3.3A6.22,6.22,0,0,0,52.42,31c1.65-.32,1-.92,1-.92a.89.89,0,0,1-1.36-.65,8,8,0,0,1,.34-2.68c.39-.78.87-1.84,1.39-3" style="fill: #441953"/>
    <path d="M108.48,31a1.54,1.54,0,1,1-1.54,1.54A1.53,1.53,0,0,1,108.48,31Zm0,.24a1.31,1.31,0,0,0,0,2.61,1.31,1.31,0,0,0,0-2.61Zm-.29,2.2h-.27V31.7a3,3,0,0,1,.49,0,.92.92,0,0,1,.54.13.41.41,0,0,1,.16.36.43.43,0,0,1-.34.42h0c.15,0,.25.16.29.42a1.32,1.32,0,0,0,.11.42h-.29a1.22,1.22,0,0,1-.12-.44.32.32,0,0,0-.37-.3h-.19Zm0-1h.2c.23,0,.42-.08.42-.29s-.11-.3-.42-.3h-.2Z" style="fill: #441953"/>
  </g>
</svg>
