<!-- Generator: Adobe Illustrator 24.0.0, SVG Export Plug-In . SVG Version: 6.00 Build 0)  -->
<svg version="1.1" id="Layer_1" xmlns="http://www.w3.org/2000/svg" xmlns:xlink="http://www.w3.org/1999/xlink" x="0px" y="0px"
     viewBox="0 0 700 104.531" style="enable-background:new 0 0 700 104.531;" xml:space="preserve">
<style type="text/css">
	.st0{fill:#1F3D73;}
	.st1{fill:#C7C8C9;}
	.st2{fill:#00A55E;}
	.st3{fill:#003876;}
	.st4{fill:#01A65D;}
</style>
  <g>
    <g>
		<g>
			<path class="st1" d="M110.131,58.612L16.426,37.706c0,0-12.32,13.813,9.333,15.68l83.625,6.347
				C109.384,59.359,109.758,58.985,110.131,58.612"/>
		</g>
      <g>
			<path class="st1" d="M117.224,53.759L48.532,16.426c0,0-17.546,8.96,0.747,15.68l67.199,22.4
				C116.851,54.132,116.851,53.759,117.224,53.759"/>
		</g>
      <g>
			<path class="st1" d="M127.304,51.519L90.345,3.733c0,0-17.546,4.107-7.093,12.693l42.932,35.093
				C126.557,51.892,126.931,51.892,127.304,51.519"/>
		</g>
      <g>
			<path class="st1" d="M134.397,51.519c0.373,0,0.747,0,1.12,0V0c0,0-17.173,0.373-13.44,11.946L134.397,51.519z"/>
		</g>
      <g>
			<path class="st1" d="M142.61,51.892L179.57,4.107c0,0-17.173-5.6-20.533,4.107L141.49,51.892
				C141.864,51.892,142.237,51.892,142.61,51.892"/>
		</g>
      <g>
			<path class="st1" d="M185.543,78.025c3.36-0.747,6.347-0.747,8.96-1.12c2.613,0,7.467,0.373,7.467,0.373
				c-2.613-5.227-4.48-8.96-8.213-10.453c-1.493-0.747-7.467-1.12-8.586-1.12c-3.36-2.987-6.347-3.36-7.84-3.36s-13.066,0-13.066,0
				H1.12C0.373,64.212,0,66.079,0,67.945c0,1.12,0,2.987,0.747,4.48c1.12,1.867,2.613,2.987,4.107,3.733
				c1.493,0.747,3.36,1.493,5.6,1.493c2.24,0.373,7.093,0.373,8.96,0.373c1.867,0,13.066-1.493,13.066-1.493l19.786-2.613
				l14.186-1.867c0,0,13.44-1.867,15.306-1.867c5.973-0.747,13.066-1.493,13.066-1.493s11.946-1.493,12.693-1.493
				c2.613,6.347,6.72,8.586,15.306,11.2c-0.373,0.373-15.306,20.16-16.053,20.906c-0.747,0.747-1.867,2.987-0.373,4.107
				c1.493,1.493,3.733,0.373,5.227,0c1.12-0.373,13.066-3.733,13.066-3.733S184.423,78.398,185.543,78.025"/>
		</g>
	</g>
    <g>
		<path class="st2" d="M390.776,40.617c-2.572-1.423-4.578-2.051-7.944-2.051c-5.988,0-10.646,3.626-10.646,9.966
			c0,5.83,5.396,9.82,11.434,9.82c3.165,0,5.816-0.628,8.159-1.769l-1.078,4.653c-2.577,0.722-5.598,1.174-8.272,1.174
			c-9.648,0-17.058-5.083-17.058-13.877c0-8.866,7.409-14.003,17.058-14.003c3.05,0,5.695,0.455,8.018,1.473L390.776,40.617z"/>
      <path class="st2" d="M394.129,48.531c0-8.868,7.379-14.003,17.068-14.003c9.647,0,17.066,5.135,17.066,14.003
			c0,8.794-7.419,13.877-17.066,13.877C401.508,62.408,394.129,57.325,394.129,48.531 M421.146,48.531
			c0-5.498-2.877-10.395-9.95-10.395c-7.082,0-9.951,4.897-9.951,10.395c0,5.407,2.869,10.228,9.951,10.228
			C418.27,58.759,421.146,53.938,421.146,48.531"/>
      <polygon class="st3" points="215.094,26.196 242.671,26.196 242.671,32.917 225.521,32.917 225.521,40.255 241.701,40.255
			241.701,46.977 225.521,46.977 225.521,55.05 243.302,55.05 243.302,61.78 215.094,61.78 		"/>
      <path class="st3" d="M330.963,42.552c-1.123-0.303-2.532-0.303-3.696-0.303c-4.691,0-7.343,3.134-7.343,8.314V61.78h-10.09V35.193
			h9.21v4.918h0.065c1.755-3.353,4.292-5.515,8.651-5.515c1.198,0,2.156,0.144,3.204,0.262V42.552z"/>
      <path class="st3" d="M352.42,61.78c-0.074-1.416-0.253-2.815-0.253-4.185h-0.073c-2.31,3.322-5.15,4.813-9.284,4.813
			c-5.783,0-10.913-2.271-10.913-8.023c0-8.144,9.686-9.467,15.047-9.467c1.607,0,3.469,0.183,4.743,0.395
			c-0.044-3.639-3.066-4.589-6.717-4.589c-3.228,0-6.56,0.533-9.349,2.012v-6.237c3.576-1.305,7.254-1.902,11.546-1.902
			c7.494,0,13.938,2.912,13.938,11.011v9.911c0,2.077,0.073,4.196,0.596,6.262H352.42z M345.459,56.263
			c3.796,0,6.229-3.142,6.229-6.26c-1.274-0.053-2.731-0.167-4.288-0.167c-3.39,0-6.079,0.97-6.079,3.526
			C341.321,55.199,343.118,56.263,345.459,56.263"/>
      <path class="st3" d="M282.049,35.193h6.004v-5.915h9.873v5.915h7.073v6.445h-7.073v9.786c0,3.197,0.85,4.839,4.062,4.839
			c1.004,0,2.09-0.188,3.095-0.345l0.287,5.97c-1.854,0.183-3.793,0.521-6.325,0.521c-8.983,0-11.22-3.649-11.22-9.948V41.638
			h-5.776V35.193z"/>
      <polygon class="st3" points="282.608,61.779 269.156,48.295 282.31,35.193 270.205,35.193 263.486,42.441 256.745,35.193
			244.679,35.193 257.84,48.295 244.272,61.779 256.376,61.779 263.486,54.135 270.53,61.779 		"/>
      <path class="st3" d="M215.149,70.611h6.974c4.8,0,9.308,1.509,9.308,6.636c0,3.322-1.752,5.394-5.365,6.011v0.086
			c3.686,0.61,6.224,2.82,6.224,6.362c0,5.786-5.219,7.596-11.327,7.596h-5.815V70.611z M218.059,94.975h3.011
			c3.88,0,8.31-0.929,8.31-5.174c0-4.738-4.47-5.221-8.782-5.221h-2.538V94.975z M218.134,82.259h3.234
			c3.058,0,7.159-0.693,7.159-4.92c0-3.879-3.942-4.423-6.404-4.423h-3.989V82.259z"/>
      <path class="st3" d="M249.047,94.187h-0.071c-1.19,2.315-4.18,3.561-6.83,3.561c-6.108,0-7.079-3.744-7.079-5.493
			c0-6.539,7.643-6.814,13.237-6.814h0.481v-1.046c0-3.278-1.302-4.957-4.842-4.957c-2.273,0-4.363,0.455-6.343,1.585v-2.328
			c1.638-0.714,4.437-1.332,6.343-1.332c5.25,0,7.523,2.147,7.523,7.235v8.624c0,1.561,0,2.742,0.183,4.079h-2.602V94.187z
			 M248.785,87.488h-0.741c-4.593,0-10.071,0.427-10.071,4.688c0,2.551,2.022,3.503,4.476,3.503c6.228,0,6.336-4.92,6.336-7.019
			V87.488z"/>
      <path class="st3" d="M256.672,82.402c0-1.51,0-3.037-0.225-4.609h2.601v3.472h0.076c0.855-1.755,2.467-3.901,6.935-3.901
			c5.284,0,7.299,3.192,7.299,7.492v12.444h-2.652V85.459c0-3.65-1.451-6.019-5.061-6.019c-4.839,0-6.37,3.817-6.37,7.1v10.76
			h-2.605V82.402z"/>
      <polygon class="st3" points="278.242,68.653 280.926,68.653 280.926,85.81 290.506,77.793 293.93,77.793 283.424,86.464
			295.191,97.3 291.51,97.3 280.926,87.277 280.926,97.3 278.242,97.3 		"/>
      <path class="st3" d="M297.11,94.469c1.598,0.733,3.578,1.209,5.617,1.209c2.535,0,4.735-1.242,4.735-3.479
			c0-4.583-10.319-3.893-10.319-9.55c0-3.848,3.464-5.286,7.044-5.286c1.107,0,3.345,0.233,5.255,0.856l-0.27,2.119
			c-1.336-0.567-3.277-0.9-4.716-0.9c-2.731,0-4.628,0.722-4.628,3.21c0,3.639,10.537,3.171,10.537,9.55
			c0,4.135-4.24,5.548-7.487,5.548c-2.048,0-4.12-0.24-6.004-0.874L297.11,94.469z"/>
      <path class="st3" d="M314.096,93.714c0-1.726,1.261-3.005,2.907-3.005c1.564,0,2.87,1.279,2.87,3.005
			c0,1.726-1.306,2.998-2.87,2.998C315.357,96.712,314.096,95.44,314.096,93.714 M317.003,97.301c1.933,0,3.574-1.53,3.574-3.587
			c0-2.074-1.642-3.599-3.574-3.599c-1.975,0-3.615,1.525-3.615,3.599C313.389,95.771,315.028,97.301,317.003,97.301
			 M316.222,94.005h0.748l1.073,1.766h0.707l-1.149-1.823c0.596-0.058,1.043-0.41,1.043-1.132c0-0.829-0.447-1.177-1.451-1.177
			h-1.569v4.131h0.597V94.005z M316.222,93.442v-1.264h0.892c0.369,0,0.855,0.079,0.855,0.617c0,0.614-0.486,0.648-0.999,0.648
			H316.222z"/>
	</g>
</g>
</svg>
