<svg width="214px" height="26px" viewBox="0 0 214 26" version="1.1" xmlns="http://www.w3.org/2000/svg" xmlns:xlink="http://www.w3.org/1999/xlink">
    <title>Visit Dallas</title>
    <g id="Home" stroke="none" stroke-width="1" fill="none" fill-rule="evenodd">
        <g transform="translate(-83.000000, -69.000000)">
            <g transform="translate(0.000000, 32.000000)">
                <g transform="translate(83.000000, 37.000000)">
                    <g transform="translate(0.000000, -0.000000)">
                        <path d="M115.191468,0.431917557 L115.630993,0.431917557 L126.941711,25.3841019 L121.596273,25.3841019 L120.429842,22.586358 L110.390506,22.586358 L109.225484,25.3841019 L104.317458,25.3841019 L115.191468,0.431917557 Z M118.610464,18.3298711 L116.831234,14.0360527 C116.10151,12.2892237 115.34009,9.59995232 115.34009,9.59995232 C115.34009,9.59995232 114.61107,12.2892237 113.88346,14.0360527 L112.100004,18.3298711 L118.610464,18.3298711 Z M130.232511,25.3841019 L146.528735,25.3841019 L146.528735,20.9099657 L135.325081,20.9099657 L135.325081,0.651679914 L130.232511,0.651679914 L130.232511,25.3841019 Z M150.861294,25.3841019 L167.158222,25.3841019 L167.158222,20.9099657 L155.955977,20.9099657 L155.955977,0.651679914 L150.861294,0.651679914 L150.861294,25.3841019 Z M180.838429,0.431917557 L181.275136,0.431917557 L192.587263,25.3841019 L187.241825,25.3841019 L186.076099,22.586358 L176.038171,22.586358 L174.873149,25.3841019 L169.96301,25.3841019 L180.838429,0.431917557 Z M184.258129,18.3298711 L182.474673,14.0360527 C181.748471,12.2892237 180.984233,9.59995232 180.984233,9.59995232 C180.984233,9.59995232 180.258031,12.2892237 179.527603,14.0360527 L177.748373,18.3298711 L184.258129,18.3298711 Z M193.581828,20.512703 C195.077199,23.4562507 198.131332,25.7123367 202.85904,25.7123367 C207.700151,25.7123367 211.299464,23.2040875 211.299464,18.617957 C211.299464,14.3642875 208.864469,12.4702459 204.532615,10.6170576 L203.260529,10.0718779 C201.077697,9.12380055 200.133142,8.5081842 200.133142,6.97759573 C200.133142,5.74213683 201.077697,4.79546821 202.568137,4.79546821 C204.024767,4.79546821 204.969322,5.41390203 205.842737,6.97759573 L209.80832,4.43201508 C208.13545,1.48494552 205.805405,0.357959071 202.568137,0.357959071 C198.022859,0.357959071 195.109599,3.27051468 195.109599,7.08536381 C195.109599,11.2361958 197.548821,13.200674 201.224205,14.7622546 L202.496996,15.3123649 C204.82704,16.3273571 206.204781,16.9457909 206.204781,18.6933242 C206.204781,20.145728 204.859441,21.2008691 202.752681,21.2008691 C200.241614,21.2008691 198.821611,19.8935648 197.731956,18.1136306 L193.581828,20.512703 Z" id="Fill-1" fill="#00A0DF"></path>
                        <path d="M99.9657407,2.93086913 C99.9657407,2.93086913 97.7068372,0.764237686 91.8352378,0.357818198 L82.4594149,0.357818198 L82.4594149,10.9120463 L89.781305,13.288579 L87.5357845,10.4189897 L89.7615828,3.69017625 L91.7556444,10.49647 L98.6549146,10.49647 L93.259467,14.6226492 L95.1809789,20.9802615 L89.744678,16.9597373 L82.4594149,22.357298 L82.4594149,25.4579195 L91.4231834,25.4579195 C91.4231834,25.4579195 99.0359769,25.4579195 102.23521,19.85891 C102.23521,19.85891 104.021483,16.9470587 103.905263,12.6490142 C103.905263,12.6490142 104.479321,6.39071753 99.9657407,2.93086913" id="Fill-3" fill="#00A0DF"></path>
                        <path d="M210.798941,1.36463972 C210.8891,1.16459962 211.007434,0.990621089 211.158873,0.843408484 C211.312424,0.696195879 211.488516,0.577862302 211.689965,0.494747051 C211.894231,0.410927434 212.110472,0.368665442 212.335869,0.368665442 C212.564084,0.368665442 212.776803,0.410927434 212.981069,0.494747051 C213.1797,0.577862302 213.355792,0.696195879 213.507231,0.843408484 C213.657261,0.990621089 213.777707,1.16459962 213.865049,1.36463972 C213.953799,1.56749728 213.998174,1.78303344 213.998174,2.01758749 C213.998174,2.25707211 213.953799,2.47965193 213.865049,2.6803964 C213.777707,2.88184522 213.657261,3.05793686 213.507231,3.20726256 C213.355792,3.3558839 213.1797,3.47140001 212.981069,3.55381089 C212.776803,3.63692614 212.564084,3.6798925 212.335869,3.6798925 C212.110472,3.6798925 211.894231,3.63692614 211.689965,3.55381089 C211.488516,3.47140001 211.312424,3.3558839 211.158873,3.20726256 C211.007434,3.05793686 210.8891,2.88184522 210.798941,2.6803964 C210.7116,2.47965193 210.665112,2.25707211 210.665112,2.01758749 C210.665112,1.78303344 210.7116,1.56749728 210.798941,1.36463972 L210.798941,1.36463972 Z M211.070122,2.58248945 C211.141968,2.75576361 211.234944,2.90508932 211.360321,3.03257966 C211.481472,3.16007 211.625868,3.25938568 211.792802,3.3326398 C211.96185,3.40307646 212.141464,3.44111225 212.335869,3.44111225 C212.528865,3.44111225 212.70707,3.40307646 212.869779,3.3326398 C213.038827,3.25938568 213.181109,3.16007 213.304373,3.03257966 C213.426933,2.90508932 213.524135,2.75576361 213.592459,2.58248945 C213.664304,2.41062401 213.695296,2.22114942 213.695296,2.01758749 C213.695296,1.8196605 213.664304,1.63511646 213.592459,1.46254666 C213.524135,1.29208996 213.426933,1.14346863 213.304373,1.01738702 C213.181109,0.893418508 213.038827,0.79339846 212.869779,0.720144341 C212.70707,0.648298955 212.528865,0.613784995 212.335869,0.613784995 C212.141464,0.613784995 211.96185,0.648298955 211.792802,0.720144341 C211.625868,0.79339846 211.481472,0.893418508 211.360321,1.01738702 C211.234944,1.14346863 211.141968,1.29208996 211.070122,1.46254666 C211.001799,1.63511646 210.967285,1.8196605 210.967285,2.01758749 C210.967285,2.22114942 211.001799,2.41062401 211.070122,2.58248945 L211.070122,2.58248945 Z M212.438707,1.05612718 C212.669739,1.05612718 212.840195,1.10050227 212.948668,1.19347865 C213.062775,1.28434193 213.117012,1.42451087 213.117012,1.6090549 C213.117012,1.78303344 213.06841,1.91122814 212.971208,1.99293466 C212.869779,2.07604991 212.751445,2.12183374 212.605641,2.13662543 L213.161387,2.99313514 L212.838082,2.99313514 L212.311216,2.15986953 L211.992843,2.15986953 L211.992843,2.99313514 L211.688556,2.99313514 L211.688556,1.05612718 L212.438707,1.05612718 Z M212.305581,1.91615871 C212.374609,1.91615871 212.437298,1.91474998 212.498578,1.90911504 C212.559858,1.90418448 212.614094,1.89221025 212.661991,1.87178362 C212.70707,1.84924389 212.74581,1.8196605 212.771168,1.77598977 C212.801455,1.73231905 212.815543,1.67244789 212.815543,1.59708067 C212.815543,1.52946148 212.804273,1.47874709 212.776803,1.43930257 C212.751445,1.40337988 212.720453,1.37238775 212.680304,1.35125675 C212.641564,1.33294322 212.594372,1.31885589 212.542953,1.31181223 C212.491534,1.30406419 212.438707,1.299838 212.390105,1.299838 L211.992843,1.299838 L211.992843,1.91615871 L212.305581,1.91615871 Z" id="Fill-5" fill="#00A0DF"></path>
                        <polygon id="Fill-8" fill="#072241" points="18.9263287 0.296256563 10.7408852 20.5552467 2.5927732 0.296256563 0 0.296256563 0 0.297665296 10.6302997 26 10.778921 26 21.407812 0.296256563"></polygon>
                        <polygon id="Fill-9" fill="#072241" points="25.8858222 25.4815158 28.3306784 25.4815158 28.3306784 0.296186126 25.8858222 0.296186126"></polygon>
                        <path d="M34.8455053,19.6299908 C36.1788712,22.1481012 38.4744017,23.5927569 41.4376717,23.5927569 C44.8827284,23.5927569 46.9197564,21.8888943 46.9197564,19.259494 C46.9197564,16.4807681 45.2165981,15.2593965 42.1793696,13.8520722 L40.1423416,12.8892031 C36.5127409,11.1853405 34.2904645,9.5188093 34.2904645,5.99979411 C34.2904645,2.4075248 37.1044088,0 40.8826309,0 C44.1417348,0 46.2907571,1.1847445 47.845294,3.70426358 L45.9942188,4.88830372 C44.8827284,2.99989705 43.2528242,2.11098649 40.9199623,2.11098649 C38.3638161,2.11098649 36.6606579,3.70426358 36.6606579,5.92583562 C36.6606579,8.33336042 38.0306508,9.25819368 41.1052107,10.7028494 L43.1049073,11.6657185 C47.1423362,13.5555339 49.3272812,15.4073135 49.3272812,19.1848312 C49.3272812,23.3335501 46.1794672,25.7777019 41.4757075,25.7777019 C37.36432,25.7777019 34.4390858,23.7780053 32.807773,20.7034454 L34.8455053,19.6299908 Z" id="Fill-10" fill="#072241"></path>
                        <polygon id="Fill-12" fill="#072241" points="54.4359108 25.4815158 56.880767 25.4815158 56.880767 0.296186126 54.4359108 0.296186126"></polygon>
                        <polygon id="Fill-13" fill="#072241" points="68.9894616 2.44457448 61.1738106 2.44457448 61.1738106 0.296256563 79.1746016 0.296256563 79.1746016 2.44457448 71.3969864 2.44457448 71.3969864 25.4808819 68.9894616 25.4808819"></polygon>
                    </g>
                </g>
            </g>
        </g>
    </g>
</svg>