
<!-- Generator: Adobe Illustrator 24.1.2, SVG Export Plug-In . SVG Version: 6.00 Build 0)  -->
<svg version="1.1" id="Layer_1" xmlns="http://www.w3.org/2000/svg" xmlns:xlink="http://www.w3.org/1999/xlink" x="0px" y="0px"
	 viewBox="0 0 657 110" style="enable-background:new 0 0 657 110;" xml:space="preserve">
<style type="text/css">
	.st0{fill:#000;}
</style>
<g>
	<path class="st0" d="M644.1,47.3L644.1,47.3c-2.5,0-4.4,1.8-4.4,4.1s2,4.1,4.4,4.1c2.5,0,4.4-1.8,4.4-4.1
		C648.4,49.1,646.5,47.3,644.1,47.3 M644.1,54.7c-1.9,0-3.3-1.5-3.3-3.3s1.4-3.3,3.3-3.3l0,0c1.9,0,3.3,1.5,3.3,3.3
		C647.3,53.2,645.9,54.7,644.1,54.7"/>
	<path class="st0" d="M645,51.5L645,51.5c0.5-0.2,0.9-0.6,0.9-1s-0.2-0.7-0.4-0.9c-0.3-0.2-0.7-0.3-1.5-0.3c-0.7,0-1.2,0.1-1.6,0.2
		v4.1h1V52h0.5c0.5,0,0.8,0.2,0.9,0.7c0.1,0.5,0.2,0.8,0.3,1h1.1c-0.1-0.1-0.2-0.4-0.3-1C645.7,52,645.4,51.7,645,51.5 M643.8,51.2
		h-0.5V50c0.1,0,0.3,0,0.5,0c0.6,0,0.9,0.2,0.9,0.6C644.8,51,644.4,51.2,643.8,51.2"/>
	<path class="st0" d="M108.3,16l3.7-0.7c0.7-1.1,0.9-3.4-0.3-4.1c-4.1,0.3-8.9,0.4-14.2,0.4c-4.7,0-9.7-0.1-15.7-0.4
		c-1.2,0.7-1.3,3-0.3,4.1l4.2,1c4.4,1,4.8,2.1,2.5,7.8c-7.8,19.2-16.6,38.7-24.5,56.6c-1.5-3.3-5.4-11.6-8.1-18L45.1,37.5
		c-6-14.4-7.2-17.5-7.2-18.8c0-1.1,1.2-1.8,4.4-2.5l3.7-0.9c1.3-1,1.2-3.2-0.2-4.1C38,11.5,33,11.6,26.4,11.6
		c-5.7,0-12-0.1-17.7-0.4c-1.5,0.4-1.5,3-0.4,4l3.5,0.7C17.7,17,19,19,23.1,28.5L48.8,88c2.6,5.9,5,12.9,6.7,18.5
		c0.7,0.4,1.8,0.7,2.8,0.7s2.2-0.3,2.5-0.7C63.3,99.3,70,82.8,76,69.9l8.2-17.5c6.8-14.3,10.9-23.8,15-30.6
		C101.7,17.7,104.9,16.7,108.3,16"/>
	<path class="st0" d="M122.5,100.9c-5-0.8-5.6-2.3-5.6-12.7V63.7c0-5.8,0.2-12.6,0.4-17.2c-0.4-0.7-1.2-1-2.1-1.1
		c-4.1,2.4-11.4,5.5-19.1,7.6c-0.6,0.7-0.6,2.7-0.1,3.3l1.8,1c3.7,2.1,3.7,3.8,3.7,10.2v20.8c0,10.5-0.6,11.9-5.6,12.7l-2.6,0.4
		c-1,1-0.9,3.5,0.3,4.1c5.6-0.3,10.6-0.4,15.4-0.4c5.4,0,10.4,0.1,15.8,0.4c1.2-0.6,1.3-3.1,0.3-4.1L122.5,100.9z"/>
	<path class="st0" d="M100.2,32.5c0,4.8,3.7,8.5,8.9,8.5c5.3,0,8.9-3.7,8.9-8.5s-3.7-8.5-8.9-8.5C103.9,24,100.2,27.7,100.2,32.5"/>
	<path class="st0" d="M152.4,69.6c-5.6-2.5-9.8-5.5-9.8-9.6s3.5-7.3,8.2-7.3c5.7,0,10.4,5.4,12.6,11.9c1,0.8,3.5,0.4,4-0.7
		c0-6.4-0.7-10.7-2.2-13.7c-2.1-1.1-7.6-2.8-13.6-2.8c-12.2,0-22,6.5-21.8,17.5c0,9.1,7.9,14.3,15.5,17.8c5.1,2.4,10,5.8,10,11
		c0,4.9-3.7,7.9-8.2,7.9c-7.8,0-13.2-7.5-15.8-15.4c-1-1-3.2-0.8-4.1,0.3c-0.3,6.1,0.6,13.3,2.1,16c4.7,3.4,10.7,4.5,16.7,4.5
		c11.6,0,22.9-5.4,22.9-17.7C168.7,78.1,160.3,73.3,152.4,69.6"/>
	<path class="st0" d="M199.1,100.9c-5-0.8-5.6-2.3-5.6-12.7V63.7c0-5.8,0.1-12.6,0.4-17.2c-0.4-0.7-1.2-1-2.1-1.1
		c-4.1,2.4-11.4,5.5-19.1,7.6c-0.6,0.7-0.6,2.7-0.1,3.3l1.8,1c3.7,2.1,3.7,3.8,3.7,10.2v20.8c0,10.5-0.6,11.9-5.6,12.7l-2.6,0.4
		c-1,1-0.9,3.5,0.3,4.1c5.6-0.3,10.6-0.4,15.4-0.4c5.4,0,10.4,0.1,15.8,0.4c1.2-0.6,1.3-3.1,0.3-4.1L199.1,100.9z"/>
	<path class="st0" d="M185.8,42c5.3,0,8.9-3.7,8.9-8.5S191,25,185.8,25s-8.9,3.7-8.9,8.5C176.8,38.3,180.5,42,185.8,42"/>
	<path class="st0" d="M232,47.3c-17.1,0-32.1,11.9-32.1,30.8c0,18.5,14.1,28.8,30.9,28.8c17.4,0,32.1-10.5,32.1-30.6
		C262.9,58,248.6,47.3,232,47.3 M232.6,101.3c-10.6,0-15.4-12.4-15.4-25.3c0-15.7,5.9-23,13.3-23c10.8,0,15.1,14,15.1,25.9
		C245.6,89.7,242.7,101.3,232.6,101.3"/>
	<path class="st0" d="M329.1,100.9c-5-0.6-5.6-2.3-5.6-12.7v-22c0-11-5.6-19-17.4-19c-9.1,0-13.2,3.4-20.1,7.1
		c-0.9-0.1-1.3-0.4-1.3-1.4c0-1.1,0-3.8,0.3-6.5c-0.3-0.6-0.9-1.1-1.9-1.1c-4.7,2.5-12.8,5.9-19,7.6c-0.6,0.7-0.6,2.7-0.1,3.3l1.8,1
		c3.7,2.1,3.7,3.8,3.7,10.2v20.8c0,10.5-0.6,12-5.6,12.7l-3.2,0.4c-1,1-0.9,3.5,0.3,4.1c6.2-0.3,11.1-0.4,15.8-0.4
		c5.4,0,10.4,0.1,15.5,0.4c1.2-0.6,1.3-3.1,0.3-4.1l-2.2-0.3c-5-0.7-5.6-2.4-5.6-12.9v-19c0-5.2,0.1-6.5,2-9
		c1.5-2.1,5.1-4.4,9.7-4.4c8.8,0,11.7,5.7,11.7,12.9v19.5c0,10.5-0.6,12.2-5.6,12.9l-2.2,0.3c-1,1-0.9,3.5,0.3,4.1
		c5.1-0.3,10.1-0.4,15-0.4c5.4,0,10.4,0.1,16.6,0.4c1.2-0.6,1.3-3.1,0.3-4.1L329.1,100.9z"/>
	<path class="st0" d="M426.2,53.6l2.8-0.7c1-1.1,0.9-3.5-0.4-4.1c-4.7,0.3-8.2,0.4-11.6,0.4s-7-0.1-12-0.4c-1.2,0.6-1.5,3.2-0.3,4.1
		l5,1c1.8,0.3,2.8,1,2.8,1.8c0,1-0.4,2.7-1.6,5.9c-2.1,5.5-7.8,19.7-10.3,24.5c-2.8-6.1-9.7-20.5-12.3-27.4
		c-0.7-1.8-0.9-2.7-0.9-3.4c0-0.8,1.2-1.3,3.7-1.8l2.6-0.6c1.3-0.7,1.2-3.5-0.3-4.1c-4.8,0.3-10.8,0.4-15.8,0.4s-10.4-0.1-14.2-0.4
		c-1.5,0.6-1.6,3.2-0.4,4.1l2.8,0.7c3.4,0.8,5.1,1.3,6.5,4.4c0.3,2,0.3,3.4-1.5,7.5l-4.1,9.3c-1.5,3.2-3.8,8.5-5.3,11.3
		c-1.2-2.7-4.5-10-7.3-16.8l-3.8-9.2c-1-2.4-1.6-3.7-1.6-4.5c0-1,1.3-1.4,3.5-2l2.5-0.7c1-0.7,0.9-3.5-0.3-4.1
		c-4,0.3-8.9,0.4-14.5,0.4c-5.7,0-10.2-0.1-15.5-0.4c-1.2,0.6-1.5,3-0.4,4.1l2.5,0.6c4.1,1,5.3,2.1,6.7,5.1
		c6.1,13,10.8,24.2,13.8,30.4c3.1,6.5,6.2,14,7.3,17.1c0.7,0.6,1.6,0.8,2.6,0.8s1.9-0.3,2.5-0.8c2.8-7.9,12.9-29.4,17.3-38.5
		c4.4,9.3,12.1,26,17.4,38.5c0.7,0.6,1.6,0.8,2.6,0.8s1.9-0.3,2.5-0.8c2.9-7.6,6.7-16.8,10-24l8.9-19.7
		C421,55.5,422.4,54.6,426.2,53.6"/>
	<path class="st0" d="M452.9,47.3c-17.1,0-32.1,11.9-32.1,30.8c0,18.5,14.1,28.8,30.9,28.8c17.4,0,32.1-10.5,32.1-30.6
		C483.9,58,469.5,47.3,452.9,47.3 M453.5,101.3c-10.5,0-15.4-12.4-15.4-25.3c0-15.7,5.9-23,13.3-23c10.8,0,15.1,14,15.1,25.9
		C466.6,89.7,463.6,101.3,453.5,101.3"/>
	<path class="st0" d="M509.8,58.6c0.9,0,3.4,0.3,7,2.7c1.2,0.7,2.5,1.1,4,1.1c4,0,8.2-2.7,8.2-8.2c0-3.7-2.9-6.9-8.1-6.9
		c-5,0-9.8,4.2-14.4,7.3c-0.9,0-1.5-0.7-1.5-1.7c0-1.3,0.1-3.7,0.3-6.4c-0.3-0.8-1.2-1.3-2-1.3c-4.4,2.5-12.2,5.7-18.5,7.6
		c-0.6,0.7-0.6,2.7-0.1,3.3l1.8,1c3.7,2.1,3.7,3.8,3.7,10.2v20.8c0,10.5-0.6,11.9-5.6,12.7l-2.6,0.4c-1,1-0.9,3.5,0.3,4.1
		c5.6-0.3,10.4-0.4,15.2-0.4c5.4,0,10.4,0.1,19.2,0.4c1.2-0.6,1.3-3.1,0.3-4.1l-5.7-0.6c-5.1-0.6-5.7-2.1-5.7-12.6V68.8
		C505.5,61.8,506.4,58.6,509.8,58.6"/>
	<path class="st0" d="M593.7,101.2c-2.6-0.3-4.5-1.3-7.3-3.8c-5.3-4.8-15.1-18.1-21-26c-0.7-0.8-0.9-1.8,0-2.8
		c2.3-2.4,7.3-6.5,12.5-10.9c3.4-2.8,5.9-4,10.7-4.8l2.6-0.4c1-1.1,1-3.7-0.3-4.2c-7.8,0.8-16.4,1.1-22.9,1.1h-4.2
		c-1.6,0.7-1.6,3.2-0.3,4.2l4,0.4c1.8,0.1,2.3,0.7,2.3,1.4s-1.2,2.3-4.2,5.5l-5.7,6.1c-4.3,4.4-7,5.4-9.5,5.4c-2.8,0-3.2-0.3-3.2-2
		V27.9c0-6.1,0.2-14.9,0.4-20.5c-0.3-0.7-1.2-1.3-2-1.1c-6,2.3-13.6,5.2-19.2,6.8c-1,0.4-0.9,2.7,0,3.2l1.6,1
		c3.7,2.3,3.8,3.1,3.8,12.6v58.2c0,10.5-0.6,12-5.6,12.7l-3.1,0.4c-1,1-0.9,3.5,0.3,4.1c6-0.3,11-0.4,15.7-0.4
		c5.4,0,10.4,0.1,16.6,0.4c1.2-0.6,1.3-3.1,0.3-4.1l-3.2-0.4c-5-0.7-5.6-2.3-5.6-12.7v-6.8c0-3.8,0.4-4.4,2.2-4.4
		c0.9,0,2.8,0.4,4.5,2.8l12,16.3c1.3,1.7,1.8,2.7,1.8,3.4s-1.3,1.4-2.8,1.7l-1.5,0.1c-1.3,1-1.2,3.4,0.3,4.1c6-0.3,10-0.4,15.8-0.4
		c6,0,10.4,0.1,15.2,0.4c1.3-0.6,1.3-3,0.4-4.1H593.7z"/>
	<path class="st0" d="M621.2,69.6c-5.6-2.5-9.8-5.5-9.8-9.6s3.5-7.3,8.2-7.3c5.7,0,10.4,5.4,12.6,11.9c1,0.8,3.5,0.4,4-0.7
		c0-6.4-0.7-10.7-2.2-13.7c-2-1.1-7.6-2.8-13.6-2.8c-12.2,0-22,6.5-21.8,17.5c0,9.1,7.9,14.3,15.5,17.8c5.1,2.4,10,5.8,10,11
		c0,4.9-3.7,7.9-8.2,7.9c-7.8,0-13.2-7.5-15.8-15.4c-1-1-3.2-0.8-4.1,0.3c-0.3,6.1,0.6,13.3,2,16c4.7,3.4,10.7,4.5,16.7,4.5
		c11.6,0,22.9-5.4,22.9-17.7C637.5,78.1,629.1,73.3,621.2,69.6"/>
</g>
</svg>
